<svg width="251" height="250" viewBox="0 0 251 250" fill="none" xmlns="http://www.w3.org/2000/svg">
<rect y="1.52588e-05" width="250" height="250" rx="40" fill="#004141"/>
<rect x="178.874" y="170.474" width="15.2001" height="138.589" transform="rotate(135 178.874 170.474)" fill="#F7A600"/>
<rect x="90.0094" y="122.141" width="50.8046" height="32.1922" transform="rotate(45 90.0094 122.141)" fill="white"/>
<rect x="118.273" y="150.404" width="15.2001" height="32.1922" transform="rotate(45 118.273 150.404)" fill="white"/>
<rect x="106.258" y="144.904" width="39.39" height="39.0115" transform="rotate(90 106.258 144.904)" fill="white"/>
<rect x="151.498" y="60.5313" width="15.2001" height="44.7063" transform="rotate(45 151.498 60.5313)" fill="white"/>
<path d="M194.098 82.4388C198.004 86.344 198.004 92.6757 194.098 96.5809L166.199 124.48C162.294 128.385 155.962 128.385 152.057 124.48L126.874 99.297C122.969 95.3918 122.969 89.0601 126.874 85.1549L154.773 57.2559C158.679 53.3506 165.01 53.3506 168.915 57.2559L194.098 82.4388Z" fill="white"/>
<rect x="180.068" y="89.1013" width="15.2001" height="44.7063" transform="rotate(45 180.068 89.1013)" fill="white"/>
</svg>
